<svg width="64" height="64" viewBox="0 0 64 64" fill="none" xmlns="http://www.w3.org/2000/svg">
  <defs>
    <linearGradient id="gouacheIconGradient" x1="8" y1="10" x2="56" y2="54" gradientUnits="userSpaceOnUse">
      <stop offset="0%" stop-color="#1e3a8a"/>
      <stop offset="50%" stop-color="#3b82f6"/>
      <stop offset="100%" stop-color="#60a5fa"/>
    </linearGradient>
    <filter id="gouacheShadow" x="-15%" y="-15%" width="130%" height="130%" color-interpolation-filters="sRGB">
      <feDropShadow dx="0" dy="4" stdDeviation="6" flood-color="#101828" flood-opacity="0.25"/>
    </filter>
  </defs>
  <rect width="64" height="64" rx="18" fill="url(#gouacheIconGradient)" filter="url(#gouacheShadow)"/>
  <path
    d="M33.2 46c-8.3 0-15.1-6.8-15.1-15.2 0-8.3 6.8-15.2 15.1-15.2 5.6 0 10.7 3 13.3 7.9l-4.9 2.8c-1.6-3.1-4.7-5-8.4-5-5.2 0-9.5 4.3-9.5 9.5 0 5.3 4.3 9.5 9.5 9.5 3.4 0 6.5-1.7 8.2-4.4h-7v-5.5h13.6c.1.8.2 1.6.2 2.5 0 8.7-6.9 15.1-15 15.1Z"
    fill="#ffffff"
  />
</svg>
