<svg width="64" height="64" viewBox="0 0 64 64" xmlns="http://www.w3.org/2000/svg">
  <defs>
    <radialGradient id="icon-glow" cx="50%" cy="50%" r="60%">
      <stop offset="0%" stop-color="#ffffff" stop-opacity="0.7"/>
      <stop offset="100%" stop-color="#ffffff" stop-opacity="0"/>
    </radialGradient>
    <linearGradient id="icon-gradient" x1="15%" y1="20%" x2="85%" y2="80%">
      <stop offset="0%" stop-color="#45c3f1"/>
      <stop offset="45%" stop-color="#4c7df7"/>
      <stop offset="100%" stop-color="#eb7cb0"/>
    </linearGradient>
  </defs>
  <rect width="64" height="64" rx="18" fill="#05060c"/>
  <rect width="64" height="64" rx="18" fill="url(#icon-glow)"/>
  <path
    fill="url(#icon-gradient)"
    d="M32.5 49.5c-8.7 0-15.8-7-15.8-15.9s7.1-15.9 15.8-15.9c5.8 0 11 3.4 13.6 8.4l-5.4 3.1c-1.8-3.1-5-5-8.7-5-5.5 0-10 4.4-10 9.9s4.5 9.9 10 9.9c3.2 0 6.1-1.5 7.8-3.9h-7.1v-5.6h13.9c0.1 0.9 0.2 1.7 0.2 2.6 0 8.5-6.8 15.4-15.3 15.4Z"
  />
</svg>

